<svg xmlns="http://www.w3.org/2000/svg" viewBox="0 0 16 16" id="Car--Streamline-Font-Awesome" height="16" width="16">
  <desc>
    Car Streamline Icon: https://streamlinehq.com
  </desc>
<!--! Font Awesome Free 6.5.2 by @fontawesome - https://fontawesome.com License - https://fontawesome.com/license/free (Icons: CC BY 4.0, Fonts: SIL OFL 1.1, Code: MIT License) Copyright 2024 Fonticons, Inc.-->
  <path d="M4.225 3.66875 3.409375 6h9.18125l-0.815625 -2.33125c-0.140625 -0.4 -0.51875 -0.66875 -0.94375 -0.66875H5.16875c-0.425 0 -0.803125 0.26875 -0.94375 0.66875zm-2.9875 2.48125L2.3375 3.009375C2.759375 1.80625 3.89375 1 5.16875 1h5.6625c1.275 0 2.409375 0.80625 2.83125 2.009375l1.1 3.140625c0.725 0.3 1.2375 1.015625 1.2375 1.85v6c0 0.553125 -0.446875 1 -1 1h-1c-0.553125 0 -1 -0.446875 -1 -1v-1.5H3v1.5c0 0.553125 -0.446875 1 -1 1H1c-0.553125 0 -1 -0.446875 -1 -1V8c0 -0.834375 0.5125 -1.55 1.2375 -1.85zM4 9a1 1 0 1 0 -2 0 1 1 0 1 0 2 0zm9 1a1 1 0 1 0 0 -2 1 1 0 1 0 0 2z" fill="#8a5a44" stroke-width="0.0313"></path>
</svg>